<svg width="651" height="127" viewBox="0 0 651 127" fill="none" xmlns="http://www.w3.org/2000/svg">
<path fill-rule="evenodd" clip-rule="evenodd" d="M651 0H0V127H621.799L651 0ZM234.008 78V66.144L247.16 44.4H241.016L231.08 60.7679L221.24 44.4H214.568L227.768 66.24V78H234.008ZM256.643 76.656C258.723 77.776 261.059 78.3361 263.651 78.3361C266.275 78.3361 268.627 77.776 270.707 76.656C272.787 75.536 274.403 73.984 275.555 72C276.739 69.984 277.331 67.712 277.331 65.184C277.331 62.656 276.739 60.4 275.555 58.416C274.403 56.432 272.787 54.88 270.707 53.76C268.627 52.64 266.275 52.08 263.651 52.08C261.059 52.08 258.723 52.64 256.643 53.76C254.563 54.88 252.931 56.432 251.747 58.416C250.595 60.4 250.019 62.656 250.019 65.184C250.019 67.712 250.595 69.984 251.747 72C252.931 73.984 254.563 75.536 256.643 76.656ZM269.123 70.9919C267.683 72.464 265.859 73.2 263.651 73.2C261.443 73.2 259.619 72.464 258.179 70.9919C256.771 69.52 256.067 67.584 256.067 65.184C256.067 62.7841 256.771 60.848 258.179 59.376C259.619 57.9041 261.443 57.168 263.651 57.168C265.859 57.168 267.683 57.9041 269.123 59.376C270.563 60.848 271.283 62.7841 271.283 65.184C271.283 67.584 270.563 69.52 269.123 70.9919ZM312.205 78V52.368H306.205V65.328C306.205 67.824 305.565 69.744 304.284 71.088C303.036 72.4 301.341 73.056 299.196 73.056C297.276 73.056 295.789 72.496 294.732 71.376C293.708 70.224 293.196 68.496 293.196 66.192V52.368H287.196V67.0081C287.196 70.752 288.172 73.584 290.125 75.504C292.109 77.392 294.812 78.3361 298.237 78.3361C299.901 78.3361 301.453 78.032 302.893 77.424C304.333 76.7841 305.532 75.8879 306.492 74.736V78H312.205ZM176.362 61.8651C176.863 61.8651 177.296 62.0475 177.661 62.4124C178.026 62.7314 178.208 63.119 178.208 63.5751C178.208 64.0767 178.026 64.5098 177.661 64.8746C177.296 65.1938 176.863 65.3534 176.362 65.3534H163.229V78.4174C163.229 78.9189 163.047 79.3522 162.682 79.7169C162.363 80.0817 161.975 80.264 161.519 80.264C161.063 80.264 160.653 80.0817 160.288 79.7169C159.969 79.3522 159.809 78.9189 159.809 78.4174V65.3534H146.677C146.175 65.3534 145.742 65.1938 145.377 64.8746C145.013 64.5098 144.83 64.0767 144.83 63.5751C144.83 63.119 145.013 62.7314 145.377 62.4124C145.742 62.0475 146.175 61.8651 146.677 61.8651H159.809V48.7328C159.809 48.2312 159.969 47.798 160.288 47.4332C160.653 47.0684 161.063 46.886 161.519 46.886C161.975 46.886 162.363 47.0684 162.682 47.4332C163.047 47.798 163.229 48.2312 163.229 48.7328V61.8651H176.362ZM95.208 59.3058C93.9742 59.3058 92.9739 60.3369 92.9739 61.6089V65.0637L92.9688 65.3135C92.8419 68.3777 90.3921 70.8217 87.3886 70.8217H80.6863V60.4573C80.6863 58.5493 79.186 57.0026 77.3352 57.0026H70.6329C68.7821 57.0026 67.2817 58.5493 67.2817 60.4573V70.8217H60.5794L60.3372 70.8163C57.3649 70.6855 54.9942 68.16 54.9942 65.0637V37.4255L54.9994 37.1757C55.1262 34.1116 57.576 31.6675 60.5794 31.6675H87.3886C90.4733 31.6675 92.9739 34.2455 92.9739 37.4255V43.1835C92.9739 44.4554 93.9742 45.4866 95.208 45.4866H103.027C104.261 45.4866 105.261 44.4554 105.261 43.1835V30.5159C105.261 24.1559 100.26 19 94.0909 19H53.8771C47.7078 19 42.7066 24.1559 42.7066 30.5159V71.9733C42.7066 78.3334 47.7078 83.4891 53.8771 83.4891H94.0909C100.26 83.4891 105.261 78.3334 105.261 71.9733V61.6089C105.261 60.3369 104.261 59.3058 103.027 59.3058H95.208ZM80.2395 41.5712C80.2395 39.7904 78.8392 38.3468 77.1118 38.3468H70.8563C69.1289 38.3468 67.7286 39.7904 67.7286 41.5712V48.0201C67.7286 49.8009 69.1289 51.2446 70.8563 51.2446H77.1118C78.8392 51.2446 80.2395 49.8009 80.2395 48.0201V41.5712ZM42 92.7805H44.0852V107.828H42V92.7805ZM59.6315 104.066L61.2371 107.828H63.4265L56.7957 92.7805H54.7314L48.1214 107.828H50.2691L51.8747 104.066H59.6315ZM55.7531 94.9731L58.9017 102.346H52.6045L55.7531 94.9731ZM73.8034 108C72.3438 108 71.0232 107.67 69.8416 107.011C68.6739 106.338 67.7565 105.42 67.0892 104.26C66.422 103.084 66.0883 101.766 66.0883 100.304C66.0883 98.8425 66.422 97.5312 67.0892 96.3705C67.7565 95.1953 68.6809 94.2781 69.8625 93.6189C71.0441 92.9453 72.3647 92.6085 73.8243 92.6085C74.9642 92.6085 76.0067 92.8092 76.952 93.2104C77.8973 93.5974 78.7036 94.1779 79.3708 94.9517L78.0154 96.3059C76.9173 95.1165 75.548 94.5217 73.9077 94.5217C72.8234 94.5217 71.8434 94.7726 70.9676 95.2742C70.0918 95.7758 69.4037 96.4708 68.9033 97.3593C68.4167 98.2335 68.1735 99.2151 68.1735 100.304C68.1735 101.393 68.4167 102.382 68.9033 103.271C69.4037 104.145 70.0918 104.833 70.9676 105.334C71.8434 105.836 72.8234 106.087 73.9077 106.087C75.5341 106.087 76.9034 105.485 78.0154 104.281L79.3708 105.635C78.7036 106.409 77.8904 106.997 76.9312 107.398C75.9859 107.799 74.9433 108 73.8034 108ZM93.15 107.828V105.958H85.6642L90.1265 101.53C91.0579 100.612 91.6904 99.7955 92.024 99.079C92.3576 98.3624 92.5244 97.6029 92.5244 96.8004C92.5244 95.5106 92.0726 94.493 91.1691 93.7479C90.2655 92.9884 89.0492 92.6085 87.52 92.6085C86.3802 92.6085 85.3445 92.8092 84.4131 93.2104C83.4957 93.6117 82.752 94.1707 82.182 94.8872L83.5999 96.1555C84.4757 95.0663 85.7198 94.5217 87.3324 94.5217C88.3333 94.5217 89.0978 94.7439 89.626 95.1881C90.1682 95.618 90.4393 96.2272 90.4393 97.0154C90.4393 97.5455 90.3141 98.0758 90.0639 98.6061C89.8137 99.1219 89.3272 99.7382 88.6043 100.455L82.6616 106.366V107.828H93.15ZM107 105.958V107.828H96.5116V106.366L102.454 100.455C103.177 99.7382 103.664 99.1219 103.914 98.6061C104.164 98.0758 104.289 97.5455 104.289 97.0154C104.289 96.2272 104.018 95.618 103.476 95.1881C102.948 94.7439 102.183 94.5217 101.182 94.5217C99.5699 94.5217 98.3257 95.0663 97.45 96.1555L96.032 94.8872C96.602 94.1707 97.3457 93.6117 98.2632 93.2104C99.1945 92.8092 100.23 92.6085 101.37 92.6085C102.899 92.6085 104.116 92.9884 105.019 93.7479C105.923 94.493 106.374 95.5106 106.374 96.8004C106.374 97.6029 106.208 98.3624 105.874 99.079C105.54 99.7955 104.908 100.612 103.977 101.53L99.5143 105.958H107Z" fill="#D72644"/>
</svg>
