<svg width="134" height="43" viewBox="0 0 134 43" fill="none" xmlns="http://www.w3.org/2000/svg">
<g id="logo">
<g id="Group">
<path id="Vector" d="M52.5414 24.8501L52.4723 25.0313C52.3709 25.3032 52.112 25.4823 51.8228 25.4823H51.3007C50.8023 25.4823 50.4678 24.9731 50.662 24.5157L52.9276 19.2056C53.0441 18.9338 53.3116 18.7568 53.6072 18.7568H54.6774C54.9774 18.7568 55.2471 18.9381 55.3593 19.2143L57.5515 24.5329C57.7392 24.986 57.4047 25.4823 56.915 25.4823H56.3647C56.0346 25.4823 55.739 25.2752 55.6247 24.9645L55.5837 24.8544C55.4844 24.5847 55.2298 24.4078 54.9428 24.4078H53.1779C52.8931 24.4078 52.6384 24.5847 52.5392 24.8501H52.5414ZM53.9589 21.0957L53.3332 22.7636C53.2987 22.8521 53.3656 22.947 53.4605 22.947H54.699C54.794 22.947 54.8587 22.8521 54.8263 22.7636L54.2136 21.0957C54.1704 20.9771 54.0021 20.9771 53.9589 21.0957Z" fill="#1E1E1E"/>
<path id="Vector_2" d="M81.8253 24.7053V19.5333C81.8253 19.104 82.1727 18.7566 82.6021 18.7566H83.0444C83.4738 18.7566 83.8212 19.104 83.8212 19.5333V24.7053C83.8212 25.1347 83.4738 25.482 83.0444 25.482H82.6021C82.1727 25.482 81.8253 25.1347 81.8253 24.7053Z" fill="#1E1E1E"/>
<path id="Vector_3" d="M62.0611 23.6674H61.006V25.4799H59.0101V18.7544H62.1474C63.9512 18.7544 64.9869 19.6175 64.9869 21.1429C64.9869 22.1398 64.5834 22.8691 63.8541 23.2812L65.2156 25.4777H62.9522L62.0611 23.6653V23.6674ZM62.1474 22.1333C62.7429 22.1333 63.0881 21.8075 63.0881 21.2033C63.0881 20.5992 62.7429 20.2928 62.1474 20.2928H61.006V22.1355H62.1474V22.1333Z" fill="#1E1E1E"/>
<path id="Vector_4" d="M78.1228 24.811V23.292C78.1228 23.1172 77.9825 22.977 77.8078 22.977H76.0493C75.8745 22.977 75.7342 23.1172 75.7342 23.292V24.811C75.7342 25.18 75.4343 25.4799 75.0653 25.4799H74.4094C74.0405 25.4799 73.7405 25.18 73.7405 24.811V19.4255C73.7405 19.0565 74.0405 18.7566 74.4094 18.7566H75.0653C75.4343 18.7566 75.7342 19.0565 75.7342 19.4255V21.1149C75.7342 21.2897 75.8766 21.4321 76.0514 21.4321H77.8056C77.9804 21.4321 78.1228 21.2897 78.1228 21.1149V19.4255C78.1228 19.0565 78.4227 18.7566 78.7916 18.7566H79.4476C79.8165 18.7566 80.1165 19.0565 80.1165 19.4255V24.811C80.1165 25.18 79.8165 25.4799 79.4476 25.4799H78.7916C78.4227 25.4799 78.1228 25.18 78.1228 24.811Z" fill="#1E1E1E"/>
<path id="Vector_5" d="M88.9737 20.6985V24.6859C88.9737 25.126 88.6177 25.482 88.1775 25.482H87.7654C87.3252 25.482 86.9692 25.126 86.9692 24.6859V20.6985C86.9692 20.5065 86.8138 20.349 86.6196 20.349H85.817C85.3768 20.349 85.0208 19.9929 85.0208 19.5528C85.0208 19.1126 85.3768 18.7566 85.817 18.7566H90.1345C90.5747 18.7566 90.9307 19.1126 90.9307 19.5528C90.9307 19.9929 90.5747 20.349 90.1345 20.349H89.3232C89.1312 20.349 88.9737 20.5043 88.9737 20.6985Z" fill="#1E1E1E"/>
<path id="Vector_6" d="M109.899 20.6985V24.6859C109.899 25.126 109.543 25.482 109.103 25.482H108.69C108.25 25.482 107.894 25.126 107.894 24.6859V20.6985C107.894 20.5065 107.739 20.349 107.545 20.349H106.742C106.302 20.349 105.946 19.9929 105.946 19.5528C105.946 19.1126 106.302 18.7566 106.742 18.7566H111.06C111.5 18.7566 111.856 19.1126 111.856 19.5528C111.856 19.9929 111.5 20.349 111.06 20.349H110.248C110.056 20.349 109.899 20.5043 109.899 20.6985Z" fill="#1E1E1E"/>
<path id="Vector_7" d="M119.272 22.6426C119.272 24.427 118.053 25.5684 116.134 25.5684C114.216 25.5684 112.95 24.427 112.95 22.6426V19.4751C112.95 19.0781 113.271 18.7566 113.668 18.7566H114.227C114.624 18.7566 114.946 19.0781 114.946 19.4751V22.6426C114.946 23.4193 115.474 23.8983 116.145 23.8983C116.816 23.8983 117.278 23.428 117.278 22.6426V19.4751C117.278 19.0781 117.599 18.7566 117.997 18.7566H118.555C118.952 18.7566 119.274 19.0781 119.274 19.4751V22.6426H119.272Z" fill="#1E1E1E"/>
<path id="Vector_8" d="M123.926 23.6674H122.871V25.4799H120.875V18.7544H124.012C125.816 18.7544 126.852 19.6175 126.852 21.1429C126.852 22.1398 126.448 22.8691 125.719 23.2812L127.08 25.4777H124.817L123.926 23.6653V23.6674ZM124.012 22.1333C124.608 22.1333 124.953 21.8075 124.953 21.2033C124.953 20.5992 124.608 20.2928 124.012 20.2928H122.871V22.1355H124.012V22.1333Z" fill="#1E1E1E"/>
<path id="Vector_9" d="M72.1115 20.6208C71.8223 20.9617 71.3239 21.02 70.9549 20.7697C70.627 20.5475 70.2667 20.4158 69.9279 20.4158C69.0174 20.4158 68.3269 21.1538 68.3269 22.142C68.3269 23.1302 69.0174 23.8789 69.9279 23.8789C70.2667 23.8789 70.6486 23.7473 71.0024 23.5272C71.3563 23.3071 71.79 23.3805 72.0661 23.6739C72.4265 24.058 72.3618 24.6794 71.9216 24.9664C71.2851 25.3806 70.5385 25.6245 69.8308 25.6245C67.7875 25.6245 66.2814 24.1464 66.2814 22.1614C66.2814 20.1763 67.8155 18.7566 69.8977 18.7566C70.5752 18.7566 71.2851 18.9616 71.8827 19.3133C72.3466 19.5873 72.4567 20.2087 72.1093 20.6208H72.1115Z" fill="#1E1E1E"/>
<path id="Vector_10" d="M104.886 20.6208C104.597 20.9617 104.099 21.02 103.73 20.7697C103.402 20.5475 103.042 20.4158 102.703 20.4158C101.792 20.4158 101.102 21.1538 101.102 22.142C101.102 23.1302 101.792 23.8789 102.703 23.8789C103.042 23.8789 103.424 23.7473 103.777 23.5272C104.131 23.3071 104.565 23.3805 104.841 23.6739C105.202 24.058 105.137 24.6794 104.697 24.9664C104.06 25.3806 103.314 25.6245 102.606 25.6245C100.563 25.6245 99.0565 24.1464 99.0565 22.1614C99.0565 20.1763 100.591 18.7566 102.673 18.7566C103.35 18.7566 104.06 18.9616 104.658 19.3133C105.122 19.5873 105.232 20.2087 104.884 20.6208H104.886Z" fill="#1E1E1E"/>
<path id="Vector_11" d="M130.401 20.8194C130.401 21.1107 130.636 21.348 130.93 21.348H132.809C133.232 21.348 133.577 21.6911 133.577 22.1162C133.577 22.5412 133.234 22.8843 132.809 22.8843H130.93C130.638 22.8843 130.401 23.1195 130.401 23.4129V23.4216C130.401 23.7128 130.636 23.9502 130.93 23.9502H133.232C133.655 23.9502 134 24.2933 134 24.7183C134 25.1434 133.657 25.4864 133.232 25.4864H129.894C129.072 25.4864 128.405 24.8197 128.405 23.9976V20.2498C128.405 19.4277 129.072 18.761 129.894 18.761H133.135C133.558 18.761 133.903 19.1041 133.903 19.5291C133.903 19.952 133.56 20.2972 133.135 20.2972H130.927C130.636 20.2972 130.399 20.5324 130.399 20.8259L130.401 20.8194Z" fill="#1E1E1E"/>
<path id="Vector_12" d="M94.1262 20.8194C94.1262 21.1107 94.3614 21.348 94.6548 21.348H96.5342C96.9571 21.348 97.3023 21.6911 97.3023 22.1162C97.3023 22.5412 96.9592 22.8843 96.5342 22.8843H94.6548C94.3636 22.8843 94.1262 23.1195 94.1262 23.4129V23.4216C94.1262 23.7128 94.3614 23.9502 94.6548 23.9502H96.9571C97.38 23.9502 97.7252 24.2933 97.7252 24.7183C97.7252 25.1434 97.3821 25.4864 96.9571 25.4864H93.6192C92.7971 25.4864 92.1304 24.8197 92.1304 23.9976V20.2498C92.1304 19.4277 92.7971 18.761 93.6192 18.761H96.86C97.2829 18.761 97.6281 19.1041 97.6281 19.5291C97.6281 19.952 97.2851 20.2972 96.86 20.2972H94.6527C94.3614 20.2972 94.1241 20.5324 94.1241 20.8259L94.1262 20.8194Z" fill="#1E1E1E"/>
</g>
<g id="Group_2">
<path id="Vector_13" d="M56.436 30.4555C56.1469 30.7965 55.6485 30.8547 55.2795 30.6044C54.9516 30.3822 54.5912 30.2506 54.2525 30.2506C53.3419 30.2506 52.6515 30.9885 52.6515 31.9767C52.6515 32.9649 53.3419 33.7136 54.2525 33.7136C54.5912 33.7136 54.9731 33.582 55.327 33.3619C55.6679 33.1483 56.1146 33.2152 56.3907 33.5086C56.7511 33.8927 56.6863 34.5141 56.2462 34.8011C55.6097 35.2154 54.8631 35.4592 54.1554 35.4592C52.1121 35.4592 50.606 33.9812 50.606 31.9961C50.606 30.0111 52.1401 28.5913 54.2223 28.5913C54.8998 28.5913 55.6097 28.7963 56.2073 29.148C56.6712 29.422 56.7813 30.0434 56.4339 30.4555H56.436Z" fill="#1E1E1E"/>
<path id="Vector_14" d="M116.387 30.4555C116.098 30.7965 115.599 30.8547 115.23 30.6044C114.902 30.3822 114.542 30.2506 114.203 30.2506C113.293 30.2506 112.602 30.9885 112.602 31.9767C112.602 32.9649 113.293 33.7136 114.203 33.7136C114.542 33.7136 114.924 33.582 115.278 33.3619C115.619 33.1483 116.065 33.2152 116.342 33.5086C116.702 33.8927 116.637 34.5141 116.197 34.8011C115.561 35.2154 114.814 35.4592 114.106 35.4592C112.063 35.4592 110.557 33.9812 110.557 31.9961C110.557 30.0111 112.091 28.5913 114.173 28.5913C114.851 28.5913 115.561 28.7963 116.158 29.148C116.622 29.422 116.732 30.0434 116.385 30.4555H116.387Z" fill="#1E1E1E"/>
<path id="Vector_15" d="M65.0257 32.0069C65.0257 33.9833 63.4722 35.4614 61.362 35.4614C59.2518 35.4614 57.6982 33.9941 57.6982 32.0069C57.6982 30.0197 59.2518 28.5913 61.362 28.5913C63.4722 28.5913 65.0257 30.0391 65.0257 32.0069ZM59.7394 32.0155C59.7394 33.0318 60.5075 33.7892 61.39 33.7892C62.2725 33.7892 62.9824 33.0318 62.9824 32.0155C62.9824 30.9993 62.2725 30.2592 61.39 30.2592C60.5075 30.2592 59.7394 30.9971 59.7394 32.0155Z" fill="#1E1E1E"/>
<path id="Vector_16" d="M70.6917 34.868L68.3981 31.858C68.3291 31.7674 68.1823 31.8148 68.1823 31.9313V34.3997C68.1823 34.9046 67.7724 35.3167 67.2653 35.3167C66.7604 35.3167 66.3483 34.9068 66.3483 34.3997V29.7327C66.3483 29.1026 66.8597 28.5913 67.4897 28.5913C67.8458 28.5913 68.1823 28.7574 68.3981 29.0422L70.6896 32.0651C70.7586 32.1579 70.9053 32.1083 70.9053 31.9918V29.4997C70.9053 28.9969 71.3131 28.5891 71.8159 28.5891C72.3186 28.5891 72.7264 28.9969 72.7264 29.4997V34.1775C72.7264 34.8054 72.2172 35.3124 71.5915 35.3124C71.2376 35.3124 70.9032 35.1463 70.6874 34.8658L70.6917 34.868Z" fill="#1E1E1E"/>
<path id="Vector_17" d="M107.083 34.868L104.789 31.858C104.72 31.7674 104.574 31.8148 104.574 31.9313V34.3997C104.574 34.9046 104.164 35.3167 103.657 35.3167C103.152 35.3167 102.74 34.9068 102.74 34.3997V29.7327C102.74 29.1026 103.251 28.5913 103.881 28.5913C104.237 28.5913 104.574 28.7574 104.789 29.0422L107.081 32.0651C107.15 32.1579 107.297 32.1083 107.297 31.9918V29.4997C107.297 28.9969 107.704 28.5891 108.207 28.5891C108.71 28.5891 109.118 28.9969 109.118 29.4997V34.1775C109.118 34.8054 108.608 35.3124 107.983 35.3124C107.629 35.3124 107.294 35.1463 107.079 34.8658L107.083 34.868Z" fill="#1E1E1E"/>
<path id="Vector_18" d="M76.4355 30.7986C76.4355 31.1698 76.7354 31.4697 77.1065 31.4697H78.66C79.0829 31.4697 79.4281 31.8128 79.4281 32.2378C79.4281 32.6607 79.0851 33.006 78.66 33.006H77.0094C76.6922 33.006 76.4355 33.2627 76.4355 33.5799V34.32C76.4355 34.8702 75.9888 35.3168 75.4386 35.3168C74.8884 35.3168 74.4418 34.8702 74.4418 34.32V30.0133C74.4418 29.23 75.0783 28.5935 75.8615 28.5935H78.893C79.316 28.5935 79.6612 28.9366 79.6612 29.3616C79.6612 29.7846 79.3181 30.1298 78.893 30.1298H77.1087C76.7375 30.1298 76.4376 30.4297 76.4376 30.8008L76.4355 30.7986Z" fill="#1E1E1E"/>
<path id="Vector_19" d="M82.9495 30.6541C82.9495 30.9454 83.1846 31.1827 83.4781 31.1827H85.3574C85.7803 31.1827 86.1256 31.5258 86.1256 31.9509C86.1256 32.376 85.7825 32.719 85.3574 32.719H83.4781C83.1868 32.719 82.9495 32.9542 82.9495 33.2477V33.2563C82.9495 33.5476 83.1846 33.7849 83.4781 33.7849H85.7803C86.2032 33.7849 86.5485 34.128 86.5485 34.553C86.5485 34.9781 86.2054 35.3212 85.7803 35.3212H82.4424C81.6203 35.3212 80.9536 34.6544 80.9536 33.8324V30.0845C80.9536 29.2624 81.6203 28.5957 82.4424 28.5957H85.6832C86.1061 28.5957 86.4514 28.9388 86.4514 29.3638C86.4514 29.7868 86.1083 30.132 85.6832 30.132H83.4759C83.1846 30.132 82.9473 30.3672 82.9473 30.6606L82.9495 30.6541Z" fill="#1E1E1E"/>
<path id="Vector_20" d="M120.02 30.6541C120.02 30.9454 120.256 31.1827 120.549 31.1827H122.428C122.851 31.1827 123.196 31.5258 123.196 31.9509C123.196 32.376 122.853 32.719 122.428 32.719H120.549C120.258 32.719 120.02 32.9542 120.02 33.2477V33.2563C120.02 33.5476 120.256 33.7849 120.549 33.7849H122.851C123.274 33.7849 123.619 34.128 123.619 34.553C123.619 34.9781 123.276 35.3212 122.851 35.3212H119.513C118.691 35.3212 118.025 34.6544 118.025 33.8324V30.0845C118.025 29.2624 118.691 28.5957 119.513 28.5957H122.754C123.177 28.5957 123.522 28.9388 123.522 29.3638C123.522 29.7868 123.179 30.132 122.754 30.132H120.547C120.256 30.132 120.018 30.3672 120.018 30.6606L120.02 30.6541Z" fill="#1E1E1E"/>
<path id="Vector_21" d="M97.6001 30.6541C97.6001 30.9454 97.8353 31.1827 98.1287 31.1827H100.008C100.431 31.1827 100.776 31.5258 100.776 31.9509C100.776 32.376 100.433 32.719 100.008 32.719H98.1287C97.8374 32.719 97.6001 32.9542 97.6001 33.2477V33.2563C97.6001 33.5476 97.8353 33.7849 98.1287 33.7849H100.431C100.854 33.7849 101.199 34.128 101.199 34.553C101.199 34.9781 100.856 35.3212 100.431 35.3212H97.093C96.271 35.3212 95.6042 34.6544 95.6042 33.8324V30.0845C95.6042 29.2624 96.271 28.5957 97.093 28.5957H100.334C100.757 28.5957 101.102 28.9388 101.102 29.3638C101.102 29.7868 100.759 30.132 100.334 30.132H98.1266C97.8353 30.132 97.5979 30.3672 97.5979 30.6606L97.6001 30.6541Z" fill="#1E1E1E"/>
<path id="Vector_22" d="M90.9911 33.5044H90.3028C90.1777 33.5044 90.0763 33.6058 90.0763 33.7309V34.32C90.0763 34.8702 89.6296 35.3168 89.0794 35.3168C88.5292 35.3168 88.0826 34.8702 88.0826 34.32V30.2074C88.0826 29.3163 88.8054 28.5935 89.6965 28.5935H91.2198C93.0236 28.5935 94.0593 29.4566 94.0593 30.9821C94.0593 31.8948 93.7227 32.583 93.1056 33.0103C93.0085 33.0771 92.9826 33.2109 93.0452 33.3123L93.6407 34.2747C93.9234 34.7299 93.5954 35.319 93.0582 35.319H92.508C92.2124 35.319 91.9405 35.1507 91.811 34.8853L91.1939 33.6338C91.1551 33.5561 91.0774 33.5065 90.9911 33.5065V33.5044ZM91.2177 31.9703C91.8132 31.9703 92.1584 31.6444 92.1584 31.0403C92.1584 30.4361 91.8132 30.1298 91.2177 30.1298H90.3028C90.1777 30.1298 90.0763 30.2312 90.0763 30.3563V31.7459C90.0763 31.871 90.1777 31.9724 90.3028 31.9724H91.2177V31.9703Z" fill="#1E1E1E"/>
</g>
<g id="Group_3">
<path id="Vector_23" d="M95.5633 14.957L95.4942 15.1383C95.3928 15.4101 95.1339 15.5892 94.8448 15.5892H94.3226C93.8242 15.5892 93.4897 15.08 93.6839 14.6226L95.9495 9.31257C96.066 9.0407 96.3336 8.86377 96.6292 8.86377H97.6994C97.9993 8.86377 98.269 9.04503 98.3812 9.32121L100.573 14.6399C100.761 15.093 100.427 15.5892 99.9369 15.5892H99.3867C99.0565 15.5892 98.7609 15.3821 98.6466 15.0714L98.6056 14.9613C98.5063 14.6916 98.2517 14.5147 97.9648 14.5147H96.1998C95.915 14.5147 95.6604 14.6916 95.5611 14.957H95.5633ZM96.9809 11.2027L96.3551 12.8706C96.3206 12.959 96.3875 13.054 96.4824 13.054H97.7209C97.8159 13.054 97.8806 12.959 97.8482 12.8706L97.2355 11.2027C97.1923 11.084 97.024 11.084 96.9809 11.2027Z" fill="#1E1E1E"/>
<path id="Vector_24" d="M124.237 15.1404L121.943 12.1304C121.874 12.0398 121.727 12.0873 121.727 12.2038V14.6722C121.727 15.1771 121.317 15.5892 120.81 15.5892C120.305 15.5892 119.893 15.1792 119.893 14.6722V10.0051C119.893 9.3751 120.405 8.86372 121.035 8.86372C121.391 8.86372 121.727 9.02987 121.943 9.31468L124.234 12.3376C124.303 12.4304 124.45 12.3807 124.45 12.2642V9.7721C124.45 9.26937 124.858 8.86157 125.361 8.86157C125.863 8.86157 126.271 9.26937 126.271 9.7721V14.4499C126.271 15.0778 125.762 15.5849 125.136 15.5849C124.782 15.5849 124.448 15.4187 124.232 15.1382L124.237 15.1404Z" fill="#1E1E1E"/>
<path id="Vector_25" d="M50.6082 14.8127V9.64078C50.6082 9.21141 50.9556 8.86401 51.385 8.86401H51.8273C52.2567 8.86401 52.6041 9.21141 52.6041 9.64078V14.8127C52.6041 15.2421 52.2567 15.5895 51.8273 15.5895H51.385C50.9556 15.5895 50.6082 15.2421 50.6082 14.8127Z" fill="#1E1E1E"/>
<path id="Vector_26" d="M107.985 14.8125V9.64054C107.985 9.21116 108.332 8.86377 108.762 8.86377H109.204C109.633 8.86377 109.981 9.21116 109.981 9.64054V14.8125C109.981 15.2418 109.633 15.5892 109.204 15.5892H108.762C108.332 15.5892 107.985 15.2418 107.985 14.8125Z" fill="#1E1E1E"/>
<path id="Vector_27" d="M104.766 10.8057V14.7931C104.766 15.2332 104.41 15.5892 103.97 15.5892H103.557C103.117 15.5892 102.761 15.2332 102.761 14.7931V10.8057C102.761 10.6136 102.606 10.4561 102.412 10.4561H101.609C101.169 10.4561 100.813 10.1001 100.813 9.65995C100.813 9.21979 101.169 8.86377 101.609 8.86377H105.927C106.367 8.86377 106.723 9.21979 106.723 9.65995C106.723 10.1001 106.367 10.4561 105.927 10.4561H105.115C104.923 10.4561 104.766 10.6115 104.766 10.8057Z" fill="#1E1E1E"/>
<path id="Vector_28" d="M90.4884 14.9333L90.4841 12.7778C90.4841 12.5253 90.1346 12.4563 90.0396 12.6915L89.3233 14.45C89.2068 14.7391 88.9263 14.9268 88.6156 14.9268H88.3394C88.0287 14.9268 87.7482 14.7391 87.6317 14.45L86.9175 12.698C86.8225 12.4628 86.473 12.5318 86.473 12.7843V14.9312C86.473 15.2936 86.1796 15.5871 85.8171 15.5871H85.3747C85.0122 15.5871 84.7188 15.2936 84.7188 14.9312V9.51971C84.7188 9.15722 85.0122 8.86377 85.3747 8.86377H86.3522C86.6586 8.86377 86.9369 9.04502 87.0599 9.32767L88.2746 12.1175C88.3523 12.2966 88.6048 12.2966 88.6825 12.1175L89.8972 9.32767C90.0202 9.04718 90.2985 8.86377 90.6049 8.86377H91.5824C91.9449 8.86377 92.2383 9.15722 92.2383 9.51971V14.9312C92.2383 15.2936 91.9449 15.5871 91.5824 15.5871H91.1487C90.7862 15.5871 90.4927 15.2936 90.4927 14.9312L90.4884 14.9333Z" fill="#1E1E1E"/>
<path id="Vector_29" d="M75.8573 12.2794C75.8573 14.2558 74.3038 15.7338 72.1936 15.7338C70.0834 15.7338 68.5298 14.2666 68.5298 12.2794C68.5298 10.2922 70.0834 8.86377 72.1936 8.86377C74.3038 8.86377 75.8573 10.3116 75.8573 12.2794ZM70.571 12.288C70.571 13.3043 71.3391 14.0616 72.2216 14.0616C73.1041 14.0616 73.814 13.3043 73.814 12.288C73.814 11.2717 73.1041 10.5317 72.2216 10.5317C71.3391 10.5317 70.571 11.2696 70.571 12.288Z" fill="#1E1E1E"/>
<path id="Vector_30" d="M118.573 12.2794C118.573 14.2558 117.019 15.7338 114.909 15.7338C112.799 15.7338 111.245 14.2666 111.245 12.2794C111.245 10.2922 112.799 8.86377 114.909 8.86377C117.019 8.86377 118.573 10.3116 118.573 12.2794ZM113.286 12.288C113.286 13.3043 114.055 14.0616 114.937 14.0616C115.819 14.0616 116.529 13.3043 116.529 12.288C116.529 11.2717 115.819 10.5317 114.937 10.5317C114.055 10.5317 113.286 11.2696 113.286 12.288Z" fill="#1E1E1E"/>
<path id="Vector_31" d="M58.652 15.1404L56.3584 12.1304C56.2893 12.0398 56.1426 12.0873 56.1426 12.2038V14.6722C56.1426 15.1771 55.7327 15.5892 55.2256 15.5892C54.7207 15.5892 54.3086 15.1792 54.3086 14.6722V10.0051C54.3086 9.3751 54.82 8.86372 55.45 8.86372C55.806 8.86372 56.1426 9.02987 56.3584 9.31468L58.6498 12.3376C58.7189 12.4304 58.8656 12.3807 58.8656 12.2642V9.7721C58.8656 9.26937 59.2734 8.86157 59.7761 8.86157C60.2789 8.86157 60.6867 9.26937 60.6867 9.7721V14.4499C60.6867 15.0778 60.1775 15.5849 59.5517 15.5849C59.1979 15.5849 58.8634 15.4187 58.6477 15.1382L58.652 15.1404Z" fill="#1E1E1E"/>
<path id="Vector_32" d="M64.3935 11.0689C64.3935 11.44 64.6934 11.7399 65.0646 11.7399H66.6181C67.041 11.7399 67.3862 12.083 67.3862 12.5081C67.3862 12.931 67.0431 13.2762 66.6181 13.2762H64.9675C64.6503 13.2762 64.3935 13.533 64.3935 13.8502V14.5902C64.3935 15.1404 63.9469 15.5871 63.3967 15.5871C62.8465 15.5871 62.3998 15.1404 62.3998 14.5902V10.2835C62.3998 9.50029 63.0364 8.86377 63.8196 8.86377H66.8511C67.274 8.86377 67.6192 9.20684 67.6192 9.6319C67.6192 10.0548 67.2762 10.4 66.8511 10.4H65.0667C64.6956 10.4 64.3957 10.7 64.3957 11.0711L64.3935 11.0689Z" fill="#1E1E1E"/>
<path id="Vector_33" d="M80.2071 13.7746H79.5188C79.3937 13.7746 79.2923 13.876 79.2923 14.0012V14.5902C79.2923 15.1404 78.8456 15.5871 78.2954 15.5871C77.7452 15.5871 77.2986 15.1404 77.2986 14.5902V10.4777C77.2986 9.5866 78.0214 8.86377 78.9125 8.86377H80.4358C82.2397 8.86377 83.2753 9.72684 83.2753 11.2523C83.2753 12.165 82.9387 12.8533 82.3216 13.2805C82.2245 13.3474 82.1987 13.4812 82.2612 13.5826L82.8567 14.5449C83.1394 15.0002 82.8114 15.5892 82.2742 15.5892H81.724C81.4284 15.5892 81.1565 15.4209 81.027 15.1555L80.4099 13.9041C80.3711 13.8264 80.2934 13.7768 80.2071 13.7768V13.7746ZM80.4337 12.2405C81.0292 12.2405 81.3744 11.9147 81.3744 11.3106C81.3744 10.7064 81.0292 10.4 80.4337 10.4H79.5188C79.3937 10.4 79.2923 10.5015 79.2923 10.6266V12.0161C79.2923 12.1413 79.3937 12.2427 79.5188 12.2427H80.4337V12.2405Z" fill="#1E1E1E"/>
</g>
<g id="Group_4">
<path id="Vector_34" d="M23.6071 12.9375H18.6164C17.6965 12.9375 16.9507 13.6833 16.9507 14.6032V19.5939C16.9507 20.5139 17.6965 21.2596 18.6164 21.2596H23.6071C24.5271 21.2596 25.2728 20.5139 25.2728 19.5939V14.6032C25.2728 13.6833 24.5271 12.9375 23.6071 12.9375Z" fill="#1E1E1E"/>
<path id="Vector_35" d="M35.5304 17.5656H40.5901C41.492 17.5656 42.2213 16.8363 42.2213 15.9344V8.3696C42.2213 3.76513 38.454 0 33.8517 0H8.36961C3.76514 0 0 3.76729 0 8.3696V33.8517C0 38.4562 3.76729 42.2213 8.36961 42.2213H33.8517C38.4562 42.2213 42.2213 38.454 42.2213 33.8517V27.5211C42.2213 26.6192 41.492 25.8899 40.5901 25.8899H35.5304C34.6285 25.8899 33.8992 26.6192 33.8992 27.5211V29.5579C33.8992 31.9465 31.9465 33.8992 29.5579 33.8992H26.8932C25.9978 33.8992 25.2728 33.1742 25.2728 32.2788V26.7745C25.2728 25.8554 24.5284 25.1088 23.6071 25.1088H18.6142C17.6951 25.1088 16.9485 25.8532 16.9485 26.7745V32.2788C16.9485 33.1742 16.2235 33.8992 15.3281 33.8992H12.6634C10.2748 33.8992 8.32214 31.9443 8.32214 29.5579V12.6655C8.32214 10.277 10.2748 8.32429 12.6634 8.32429H29.5558C31.9443 8.32429 33.897 10.277 33.897 12.6655V15.9366C33.897 16.8385 34.6263 17.5678 35.5282 17.5678L35.5304 17.5656Z" fill="#1E1E1E"/>
</g>
</g>
</svg>
