<svg width="622" height="196" viewBox="0 0 622 196" fill="none" xmlns="http://www.w3.org/2000/svg">
<path d="M243.51 115.17L243.19 116.01C242.72 117.27 241.52 118.1 240.18 118.1H237.76C235.45 118.1 233.9 115.74 234.8 113.62L245.3 89.01C245.84 87.75 247.08 86.93 248.45 86.93H253.41C254.8 86.93 256.05 87.77 256.57 89.05L266.73 113.7C267.6 115.8 266.05 118.1 263.78 118.1H261.23C259.7 118.1 258.33 117.14 257.8 115.7L257.61 115.19C257.15 113.94 255.97 113.12 254.64 113.12H246.46C245.14 113.12 243.96 113.94 243.5 115.17H243.51ZM250.08 97.77L247.18 105.5C247.02 105.91 247.33 106.35 247.77 106.35H253.51C253.95 106.35 254.25 105.91 254.1 105.5L251.26 97.77C251.06 97.22 250.28 97.22 250.08 97.77Z" fill="#1E1E1E"/>
<path d="M379.24 114.5V90.53C379.24 88.54 380.85 86.93 382.84 86.93H384.89C386.88 86.93 388.49 88.54 388.49 90.53V114.5C388.49 116.49 386.88 118.1 384.89 118.1H382.84C380.85 118.1 379.24 116.49 379.24 114.5Z" fill="#1E1E1E"/>
<path d="M287.64 109.69H282.75V118.09H273.5V86.92H288.04C296.4 86.92 301.2 90.92 301.2 97.99C301.2 102.61 299.33 105.99 295.95 107.9L302.26 118.08H291.77L287.64 109.68V109.69ZM288.04 102.58C290.8 102.58 292.4 101.07 292.4 98.27C292.4 95.47 290.8 94.05 288.04 94.05H282.75V102.59H288.04V102.58Z" fill="#1E1E1E"/>
<path d="M362.07 114.99V107.95C362.07 107.14 361.42 106.49 360.61 106.49H352.46C351.65 106.49 351 107.14 351 107.95V114.99C351 116.7 349.61 118.09 347.9 118.09H344.86C343.15 118.09 341.76 116.7 341.76 114.99V90.03C341.76 88.32 343.15 86.93 344.86 86.93H347.9C349.61 86.93 351 88.32 351 90.03V97.86C351 98.67 351.66 99.33 352.47 99.33H360.6C361.41 99.33 362.07 98.67 362.07 97.86V90.03C362.07 88.32 363.46 86.93 365.17 86.93H368.21C369.92 86.93 371.31 88.32 371.31 90.03V114.99C371.31 116.7 369.92 118.09 368.21 118.09H365.17C363.46 118.09 362.07 116.7 362.07 114.99Z" fill="#1E1E1E"/>
<path d="M412.36 95.93V114.41C412.36 116.45 410.71 118.1 408.67 118.1H406.76C404.72 118.1 403.07 116.45 403.07 114.41V95.93C403.07 95.04 402.35 94.31 401.45 94.31H397.73C395.69 94.31 394.04 92.66 394.04 90.62C394.04 88.58 395.69 86.93 397.73 86.93H417.74C419.78 86.93 421.43 88.58 421.43 90.62C421.43 92.66 419.78 94.31 417.74 94.31H413.98C413.09 94.31 412.36 95.03 412.36 95.93Z" fill="#1E1E1E"/>
<path d="M509.34 95.93V114.41C509.34 116.45 507.69 118.1 505.65 118.1H503.74C501.7 118.1 500.05 116.45 500.05 114.41V95.93C500.05 95.04 499.33 94.31 498.43 94.31H494.71C492.67 94.31 491.02 92.66 491.02 90.62C491.02 88.58 492.67 86.93 494.71 86.93H514.72C516.76 86.93 518.41 88.58 518.41 90.62C518.41 92.66 516.76 94.31 514.72 94.31H510.96C510.07 94.31 509.34 95.03 509.34 95.93Z" fill="#1E1E1E"/>
<path d="M552.78 104.94C552.78 113.21 547.13 118.5 538.24 118.5C529.35 118.5 523.48 113.21 523.48 104.94V90.26C523.48 88.42 524.97 86.93 526.81 86.93H529.4C531.24 86.93 532.73 88.42 532.73 90.26V104.94C532.73 108.54 535.18 110.76 538.29 110.76C541.4 110.76 543.54 108.58 543.54 104.94V90.26C543.54 88.42 545.03 86.93 546.87 86.93H549.46C551.3 86.93 552.79 88.42 552.79 90.26V104.94H552.78Z" fill="#1E1E1E"/>
<path d="M574.35 109.69H569.46V118.09H560.21V86.92H574.75C583.11 86.92 587.91 90.92 587.91 97.99C587.91 102.61 586.04 105.99 582.66 107.9L588.97 118.08H578.48L574.35 109.68V109.69ZM574.75 102.58C577.51 102.58 579.11 101.07 579.11 98.27C579.11 95.47 577.51 94.05 574.75 94.05H569.46V102.59H574.75V102.58Z" fill="#1E1E1E"/>
<path d="M334.21 95.57C332.87 97.15 330.56 97.42 328.85 96.26C327.33 95.23 325.66 94.62 324.09 94.62C319.87 94.62 316.67 98.04 316.67 102.62C316.67 107.2 319.87 110.67 324.09 110.67C325.66 110.67 327.43 110.06 329.07 109.04C330.65 108.05 332.72 108.36 334 109.72C335.67 111.5 335.37 114.38 333.33 115.71C330.38 117.63 326.92 118.76 323.64 118.76C314.17 118.76 307.19 111.91 307.19 102.71C307.19 93.51 314.3 86.93 323.95 86.93C327.09 86.93 330.38 87.88 333.15 89.51C335.3 90.78 335.81 93.66 334.2 95.57H334.21Z" fill="#1E1E1E"/>
<path d="M486.11 95.57C484.77 97.15 482.46 97.42 480.75 96.26C479.23 95.23 477.56 94.62 475.99 94.62C471.77 94.62 468.57 98.04 468.57 102.62C468.57 107.2 471.77 110.67 475.99 110.67C477.56 110.67 479.33 110.06 480.97 109.04C482.55 108.05 484.62 108.36 485.9 109.72C487.57 111.5 487.27 114.38 485.23 115.71C482.28 117.63 478.82 118.76 475.54 118.76C466.07 118.76 459.09 111.91 459.09 102.71C459.09 93.51 466.2 86.93 475.85 86.93C478.99 86.93 482.28 87.88 485.05 89.51C487.2 90.78 487.71 93.66 486.1 95.57H486.11Z" fill="#1E1E1E"/>
<path d="M604.37 96.49C604.37 97.84 605.46 98.94 606.82 98.94H615.53C617.49 98.94 619.09 100.53 619.09 102.5C619.09 104.47 617.5 106.06 615.53 106.06H606.82C605.47 106.06 604.37 107.15 604.37 108.51V108.55C604.37 109.9 605.46 111 606.82 111H617.49C619.45 111 621.05 112.59 621.05 114.56C621.05 116.53 619.46 118.12 617.49 118.12H602.02C598.21 118.12 595.12 115.03 595.12 111.22V93.85C595.12 90.04 598.21 86.95 602.02 86.95H617.04C619 86.95 620.6 88.54 620.6 90.51C620.6 92.47 619.01 94.07 617.04 94.07H606.81C605.46 94.07 604.36 95.16 604.36 96.52L604.37 96.49Z" fill="#1E1E1E"/>
<path d="M436.24 96.49C436.24 97.84 437.33 98.94 438.69 98.94H447.4C449.36 98.94 450.96 100.53 450.96 102.5C450.96 104.47 449.37 106.06 447.4 106.06H438.69C437.34 106.06 436.24 107.15 436.24 108.51V108.55C436.24 109.9 437.33 111 438.69 111H449.36C451.32 111 452.92 112.59 452.92 114.56C452.92 116.53 451.33 118.12 449.36 118.12H433.89C430.08 118.12 426.99 115.03 426.99 111.22V93.85C426.99 90.04 430.08 86.95 433.89 86.95H448.91C450.87 86.95 452.47 88.54 452.47 90.51C452.47 92.47 450.88 94.07 448.91 94.07H438.68C437.33 94.07 436.23 95.16 436.23 96.52L436.24 96.49Z" fill="#1E1E1E"/>
<path d="M261.56 141.15C260.22 142.73 257.91 143 256.2 141.84C254.68 140.81 253.01 140.2 251.44 140.2C247.22 140.2 244.02 143.62 244.02 148.2C244.02 152.78 247.22 156.25 251.44 156.25C253.01 156.25 254.78 155.64 256.42 154.62C258 153.63 260.07 153.94 261.35 155.3C263.02 157.08 262.72 159.96 260.68 161.29C257.73 163.21 254.27 164.34 250.99 164.34C241.52 164.34 234.54 157.49 234.54 148.29C234.54 139.09 241.65 132.51 251.3 132.51C254.44 132.51 257.73 133.46 260.5 135.09C262.65 136.36 263.16 139.24 261.55 141.15H261.56Z" fill="#1E1E1E"/>
<path d="M539.41 141.15C538.07 142.73 535.76 143 534.05 141.84C532.53 140.81 530.86 140.2 529.29 140.2C525.07 140.2 521.87 143.62 521.87 148.2C521.87 152.78 525.07 156.25 529.29 156.25C530.86 156.25 532.63 155.64 534.27 154.62C535.85 153.63 537.92 153.94 539.2 155.3C540.87 157.08 540.57 159.96 538.53 161.29C535.58 163.21 532.12 164.34 528.84 164.34C519.37 164.34 512.39 157.49 512.39 148.29C512.39 139.09 519.5 132.51 529.15 132.51C532.29 132.51 535.58 133.46 538.35 135.09C540.5 136.36 541.01 139.24 539.4 141.15H539.41Z" fill="#1E1E1E"/>
<path d="M301.38 148.34C301.38 157.5 294.18 164.35 284.4 164.35C274.62 164.35 267.42 157.55 267.42 148.34C267.42 139.13 274.62 132.51 284.4 132.51C294.18 132.51 301.38 139.22 301.38 148.34ZM276.88 148.38C276.88 153.09 280.44 156.6 284.53 156.6C288.62 156.6 291.91 153.09 291.91 148.38C291.91 143.67 288.62 140.24 284.53 140.24C280.44 140.24 276.88 143.66 276.88 148.38Z" fill="#1E1E1E"/>
<path d="M327.63 161.61L317 147.66C316.68 147.24 316 147.46 316 148V159.44C316 161.78 314.1 163.69 311.75 163.69C309.41 163.69 307.5 161.79 307.5 159.44V137.81C307.5 134.89 309.87 132.52 312.79 132.52C314.44 132.52 316 133.29 317 134.61L327.62 148.62C327.94 149.05 328.62 148.82 328.62 148.28V136.73C328.62 134.4 330.51 132.51 332.84 132.51C335.17 132.51 337.06 134.4 337.06 136.73V158.41C337.06 161.32 334.7 163.67 331.8 163.67C330.16 163.67 328.61 162.9 327.61 161.6L327.63 161.61Z" fill="#1E1E1E"/>
<path d="M496.29 161.61L485.66 147.66C485.34 147.24 484.66 147.46 484.66 148V159.44C484.66 161.78 482.76 163.69 480.41 163.69C478.07 163.69 476.16 161.79 476.16 159.44V137.81C476.16 134.89 478.53 132.52 481.45 132.52C483.1 132.52 484.66 133.29 485.66 134.61L496.28 148.62C496.6 149.05 497.28 148.82 497.28 148.28V136.73C497.28 134.4 499.17 132.51 501.5 132.51C503.83 132.51 505.72 134.4 505.72 136.73V158.41C505.72 161.32 503.36 163.67 500.46 163.67C498.82 163.67 497.27 162.9 496.27 161.6L496.29 161.61Z" fill="#1E1E1E"/>
<path d="M354.25 142.74C354.25 144.46 355.64 145.85 357.36 145.85H364.56C366.52 145.85 368.12 147.44 368.12 149.41C368.12 151.37 366.53 152.97 364.56 152.97H356.91C355.44 152.97 354.25 154.16 354.25 155.63V159.06C354.25 161.61 352.18 163.68 349.63 163.68C347.08 163.68 345.01 161.61 345.01 159.06V139.1C345.01 135.47 347.96 132.52 351.59 132.52H365.64C367.6 132.52 369.2 134.11 369.2 136.08C369.2 138.04 367.61 139.64 365.64 139.64H357.37C355.65 139.64 354.26 141.03 354.26 142.75L354.25 142.74Z" fill="#1E1E1E"/>
<path d="M384.44 142.07C384.44 143.42 385.53 144.52 386.89 144.52H395.6C397.56 144.52 399.16 146.11 399.16 148.08C399.16 150.05 397.57 151.64 395.6 151.64H386.89C385.54 151.64 384.44 152.73 384.44 154.09V154.13C384.44 155.48 385.53 156.58 386.89 156.58H397.56C399.52 156.58 401.12 158.17 401.12 160.14C401.12 162.11 399.53 163.7 397.56 163.7H382.09C378.28 163.7 375.19 160.61 375.19 156.8V139.43C375.19 135.62 378.28 132.53 382.09 132.53H397.11C399.07 132.53 400.67 134.12 400.67 136.09C400.67 138.05 399.08 139.65 397.11 139.65H386.88C385.53 139.65 384.43 140.74 384.43 142.1L384.44 142.07Z" fill="#1E1E1E"/>
<path d="M556.26 142.07C556.26 143.42 557.35 144.52 558.71 144.52H567.42C569.38 144.52 570.98 146.11 570.98 148.08C570.98 150.05 569.39 151.64 567.42 151.64H558.71C557.36 151.64 556.26 152.73 556.26 154.09V154.13C556.26 155.48 557.35 156.58 558.71 156.58H569.38C571.34 156.58 572.94 158.17 572.94 160.14C572.94 162.11 571.35 163.7 569.38 163.7H553.91C550.1 163.7 547.01 160.61 547.01 156.8V139.43C547.01 135.62 550.1 132.53 553.91 132.53H568.93C570.89 132.53 572.49 134.12 572.49 136.09C572.49 138.05 570.9 139.65 568.93 139.65H558.7C557.35 139.65 556.25 140.74 556.25 142.1L556.26 142.07Z" fill="#1E1E1E"/>
<path d="M452.34 142.07C452.34 143.42 453.43 144.52 454.79 144.52H463.5C465.46 144.52 467.06 146.11 467.06 148.08C467.06 150.05 465.47 151.64 463.5 151.64H454.79C453.44 151.64 452.34 152.73 452.34 154.09V154.13C452.34 155.48 453.43 156.58 454.79 156.58H465.46C467.42 156.58 469.02 158.17 469.02 160.14C469.02 162.11 467.43 163.7 465.46 163.7H449.99C446.18 163.7 443.09 160.61 443.09 156.8V139.43C443.09 135.62 446.18 132.53 449.99 132.53H465.01C466.97 132.53 468.57 134.12 468.57 136.09C468.57 138.05 466.98 139.65 465.01 139.65H454.78C453.43 139.65 452.33 140.74 452.33 142.1L452.34 142.07Z" fill="#1E1E1E"/>
<path d="M421.72 155.28H418.53C417.95 155.28 417.48 155.75 417.48 156.33V159.06C417.48 161.61 415.41 163.68 412.86 163.68C410.31 163.68 408.24 161.61 408.24 159.06V140C408.24 135.87 411.59 132.52 415.72 132.52H422.78C431.14 132.52 435.94 136.52 435.94 143.59C435.94 147.82 434.38 151.01 431.52 152.99C431.07 153.3 430.95 153.92 431.24 154.39L434 158.85C435.31 160.96 433.79 163.69 431.3 163.69H428.75C427.38 163.69 426.12 162.91 425.52 161.68L422.66 155.88C422.48 155.52 422.12 155.29 421.72 155.29V155.28ZM422.77 148.17C425.53 148.17 427.13 146.66 427.13 143.86C427.13 141.06 425.53 139.64 422.77 139.64H418.53C417.95 139.64 417.48 140.11 417.48 140.69V147.13C417.48 147.71 417.95 148.18 418.53 148.18H422.77V148.17Z" fill="#1E1E1E"/>
<path d="M442.91 69.32L442.59 70.16C442.12 71.42 440.92 72.25 439.58 72.25H437.16C434.85 72.25 433.3 69.89 434.2 67.77L444.7 43.16C445.24 41.9 446.48 41.08 447.85 41.08H452.81C454.2 41.08 455.45 41.92 455.97 43.2L466.13 67.85C467 69.95 465.45 72.25 463.18 72.25H460.63C459.1 72.25 457.73 71.29 457.2 69.85L457.01 69.34C456.55 68.09 455.37 67.27 454.04 67.27H445.86C444.54 67.27 443.36 68.09 442.9 69.32H442.91ZM449.48 51.92L446.58 59.65C446.42 60.06 446.73 60.5 447.17 60.5H452.91C453.35 60.5 453.65 60.06 453.5 59.65L450.66 51.92C450.46 51.37 449.68 51.37 449.48 51.92Z" fill="#1E1E1E"/>
<path d="M575.8 70.17L565.17 56.22C564.85 55.8 564.17 56.02 564.17 56.56V68C564.17 70.34 562.27 72.25 559.92 72.25C557.58 72.25 555.67 70.35 555.67 68V46.37C555.67 43.45 558.04 41.08 560.96 41.08C562.61 41.08 564.17 41.85 565.17 43.17L575.79 57.18C576.11 57.61 576.79 57.38 576.79 56.84V45.29C576.79 42.96 578.68 41.07 581.01 41.07C583.34 41.07 585.23 42.96 585.23 45.29V66.97C585.23 69.88 582.87 72.23 579.97 72.23C578.33 72.23 576.78 71.46 575.78 70.16L575.8 70.17Z" fill="#1E1E1E"/>
<path d="M234.55 68.65V44.68C234.55 42.69 236.16 41.08 238.15 41.08H240.2C242.19 41.08 243.8 42.69 243.8 44.68V68.65C243.8 70.64 242.19 72.25 240.2 72.25H238.15C236.16 72.25 234.55 70.64 234.55 68.65Z" fill="#1E1E1E"/>
<path d="M500.48 68.65V44.68C500.48 42.69 502.09 41.08 504.08 41.08H506.13C508.12 41.08 509.73 42.69 509.73 44.68V68.65C509.73 70.64 508.12 72.25 506.13 72.25H504.08C502.09 72.25 500.48 70.64 500.48 68.65Z" fill="#1E1E1E"/>
<path d="M485.56 50.08V68.56C485.56 70.6 483.91 72.25 481.87 72.25H479.96C477.92 72.25 476.27 70.6 476.27 68.56V50.08C476.27 49.19 475.55 48.46 474.65 48.46H470.93C468.89 48.46 467.24 46.81 467.24 44.77C467.24 42.73 468.89 41.08 470.93 41.08H490.94C492.98 41.08 494.63 42.73 494.63 44.77C494.63 46.81 492.98 48.46 490.94 48.46H487.18C486.29 48.46 485.56 49.18 485.56 50.08Z" fill="#1E1E1E"/>
<path d="M419.38 69.21L419.36 59.22C419.36 58.05 417.74 57.73 417.3 58.82L413.98 66.97C413.44 68.31 412.14 69.18 410.7 69.18H409.42C407.98 69.18 406.68 68.31 406.14 66.97L402.83 58.85C402.39 57.76 400.77 58.08 400.77 59.25V69.2C400.77 70.88 399.41 72.24 397.73 72.24H395.68C394 72.24 392.64 70.88 392.64 69.2V44.12C392.64 42.44 394 41.08 395.68 41.08H400.21C401.63 41.08 402.92 41.92 403.49 43.23L409.12 56.16C409.48 56.99 410.65 56.99 411.01 56.16L416.64 43.23C417.21 41.93 418.5 41.08 419.92 41.08H424.45C426.13 41.08 427.49 42.44 427.49 44.12V69.2C427.49 70.88 426.13 72.24 424.45 72.24H422.44C420.76 72.24 419.4 70.88 419.4 69.2L419.38 69.21Z" fill="#1E1E1E"/>
<path d="M351.58 56.91C351.58 66.07 344.38 72.92 334.6 72.92C324.82 72.92 317.62 66.12 317.62 56.91C317.62 47.7 324.82 41.08 334.6 41.08C344.38 41.08 351.58 47.79 351.58 56.91ZM327.08 56.95C327.08 61.66 330.64 65.17 334.73 65.17C338.82 65.17 342.11 61.66 342.11 56.95C342.11 52.24 338.82 48.81 334.73 48.81C330.64 48.81 327.08 52.23 327.08 56.95Z" fill="#1E1E1E"/>
<path d="M549.54 56.91C549.54 66.07 542.34 72.92 532.56 72.92C522.78 72.92 515.58 66.12 515.58 56.91C515.58 47.7 522.78 41.08 532.56 41.08C542.34 41.08 549.54 47.79 549.54 56.91ZM525.04 56.95C525.04 61.66 528.6 65.17 532.69 65.17C536.78 65.17 540.07 61.66 540.07 56.95C540.07 52.24 536.78 48.81 532.69 48.81C528.6 48.81 525.04 52.23 525.04 56.95Z" fill="#1E1E1E"/>
<path d="M271.83 70.17L261.2 56.22C260.88 55.8 260.2 56.02 260.2 56.56V68C260.2 70.34 258.3 72.25 255.95 72.25C253.61 72.25 251.7 70.35 251.7 68V46.37C251.7 43.45 254.07 41.08 256.99 41.08C258.64 41.08 260.2 41.85 261.2 43.17L271.82 57.18C272.14 57.61 272.82 57.38 272.82 56.84V45.29C272.82 42.96 274.71 41.07 277.04 41.07C279.37 41.07 281.26 42.96 281.26 45.29V66.97C281.26 69.88 278.9 72.23 276 72.23C274.36 72.23 272.81 71.46 271.81 70.16L271.83 70.17Z" fill="#1E1E1E"/>
<path d="M298.45 51.3C298.45 53.02 299.84 54.41 301.56 54.41H308.76C310.72 54.41 312.32 56 312.32 57.97C312.32 59.93 310.73 61.53 308.76 61.53H301.11C299.64 61.53 298.45 62.72 298.45 64.19V67.62C298.45 70.17 296.38 72.24 293.83 72.24C291.28 72.24 289.21 70.17 289.21 67.62V47.66C289.21 44.03 292.16 41.08 295.79 41.08H309.84C311.8 41.08 313.4 42.67 313.4 44.64C313.4 46.6 311.81 48.2 309.84 48.2H301.57C299.85 48.2 298.46 49.59 298.46 51.31L298.45 51.3Z" fill="#1E1E1E"/>
<path d="M371.74 63.84H368.55C367.97 63.84 367.5 64.31 367.5 64.89V67.62C367.5 70.17 365.43 72.24 362.88 72.24C360.33 72.24 358.26 70.17 358.26 67.62V48.56C358.26 44.43 361.61 41.08 365.74 41.08H372.8C381.16 41.08 385.96 45.08 385.96 52.15C385.96 56.38 384.4 59.57 381.54 61.55C381.09 61.86 380.97 62.48 381.26 62.95L384.02 67.41C385.33 69.52 383.81 72.25 381.32 72.25H378.77C377.4 72.25 376.14 71.47 375.54 70.24L372.68 64.44C372.5 64.08 372.14 63.85 371.74 63.85V63.84ZM372.79 56.73C375.55 56.73 377.15 55.22 377.15 52.42C377.15 49.62 375.55 48.2 372.79 48.2H368.55C367.97 48.2 367.5 48.67 367.5 49.25V55.69C367.5 56.27 367.97 56.74 368.55 56.74H372.79V56.73Z" fill="#1E1E1E"/>
<path d="M109.41 59.97H86.2801C82.0164 59.97 78.5601 63.4263 78.5601 67.69V90.82C78.5601 95.0836 82.0164 98.54 86.2801 98.54H109.41C113.674 98.54 117.13 95.0836 117.13 90.82V67.69C117.13 63.4263 113.674 59.97 109.41 59.97Z" fill="#1E1E1E"/>
<path d="M164.67 81.41H188.12C192.3 81.41 195.68 78.03 195.68 73.85V38.79C195.68 17.45 178.22 0 156.89 0H38.79C17.45 0 0 17.46 0 38.79V156.89C0 178.23 17.46 195.68 38.79 195.68H156.89C178.23 195.68 195.68 178.22 195.68 156.89V127.55C195.68 123.37 192.3 119.99 188.12 119.99H164.67C160.49 119.99 157.11 123.37 157.11 127.55V136.99C157.11 148.06 148.06 157.11 136.99 157.11H124.64C120.49 157.11 117.13 153.75 117.13 149.6V124.09C117.13 119.83 113.68 116.37 109.41 116.37H86.27C82.01 116.37 78.55 119.82 78.55 124.09V149.6C78.55 153.75 75.19 157.11 71.04 157.11H58.69C47.62 157.11 38.57 148.05 38.57 136.99V58.7C38.57 47.63 47.62 38.58 58.69 38.58H136.98C148.05 38.58 157.1 47.63 157.1 58.7V73.86C157.1 78.04 160.48 81.42 164.66 81.42L164.67 81.41Z" fill="#1E1E1E"/>
</svg>
